#!OML:ASF H:\ManfredETheater\Project 1\Capture day 1\Session 1\subject.ASF
:FULLY-SPECIFIED
:DEGREES
113
root 5.11916 16.5158 16.6977 15.5332 27.1 -0.508612
lowerback 5.51553 -3.18841 -3.43398
upperback -3.6556 -4.35346 3.45601
thorax -6.39709 -1.91198 6.02827
lowerneck -23.3318 1.54397 0.0747315
upperneck 13.4776 2.72516 -3.42856
head 8.02341 0.92846 -0.803803
rclavicle 7.07176e-014 -1.66979e-014
rhumerus -81.7197 1.91814 -75.9118
rradius 89.777
rwrist -11.6821
rhand -23.9691 13.1242
rfingers 7.12502
rthumb 2.50721 -16.8408
lclavicle 7.07176e-014 -1.66979e-014
lhumerus -45.6902 -18.3056 100.638
lradius 140.573
lwrist 18.8266
lhand -20.1891 -10.0914
lfingers 7.12502
lthumb 6.15723 19.7991
rfemur -58.5372 -8.76332 8.07747
rtibia 47.2672
rfoot 6.32253 -6.32057
rtoes -37.9265
lfemur 11.2233 -5.38261 -34.6751
ltibia 28.3591
lfoot 13.2643 -9.48903
ltoes 2.94747
114
root 5.33011 16.5331 17.2679 15.7334 27.2143 -0.197715
lowerback 5.05666 -3.31873 -3.64071
upperback -3.73873 -4.53632 3.43761
thorax -6.18524 -2.00096 6.10917
lowerneck -23.6312 1.60247 0.0985139
upperneck 13.6222 2.81474 -3.47997
head 8.12463 0.960929 -0.811845
rclavicle 3.73218e-014 2.06736e-014
rhumerus -82.2041 1.65134 -75.4527
rradius 90.3888
rwrist -11.6148
rhand -23.9536 13.2551
rfingers 7.12502
rthumb 2.52214 -16.7097
lclavicle 3.73218e-014 2.06736e-014
lhumerus -46.5518 -18.8262 100.735
lradius 140.258
lwrist 18.7356
lhand -19.9796 -10.2246
lfingers 7.12502
lthumb 6.35949 19.6599
rfemur -58.4071 -8.94187 8.63312
rtibia 43.1255
rfoot 8.20841 -5.46292
rtoes -39.1807
lfemur 12.3867 -6.24446 -34.6249
ltibia 28.6017
lfoot 13.2363 -8.30724
ltoes 3.31761
115
root 5.53769 16.5407 17.833 15.9066 27.4947 0.137045
lowerback 4.69342 -3.472 -3.84326
upperback -3.79478 -4.75067 3.40881
thorax -5.99573 -2.10596 6.18312
lowerneck -23.9042 1.6241 0.0995179
upperneck 13.6844 2.85327 -3.50456
head 8.19182 0.972399 -0.814117
rclavicle 1.19271e-014 2.62396e-014
rhumerus -82.58 1.26706 -74.9884
rradius 90.9543
rwrist -11.4177
rhand -23.9466 13.3829
rfingers 7.12502
rthumb 2.52896 -16.5818
lclavicle 1.19271e-014 2.62396e-014
lhumerus -47.3288 -19.1526 100.776
lradius 139.652
lwrist 18.7739
lhand -19.7166 -10.2799
lfingers 7.12502
lthumb 6.61345 19.5969
rfemur -58.1477 -9.35609 9.29953
rtibia 39.2688
rfoot 9.95316 -5.00943
rtoes -40.4369
lfemur 13.2157 -7.17057 -34.5498
ltibia 29.6081
lfoot 12.7001 -6.98445
ltoes 3.69427
116
root 5.74085 16.5388 18.3933 16.02 27.9281 0.493306
lowerback 4.45823 -3.6392 -4.05976
upperback -3.8126 -4.98737 3.36955
thorax -5.83498 -2.22159 6.2618
lowerneck -24.1555 1.60918 0.0795715
upperneck 13.6706 2.84186 -3.50709
head 8.22793 0.962985 -0.812495
rclavicle -4.65653e-014 1.47101e-014
rhumerus -82.8377 0.761899 -74.5321
rradius 91.46
rwrist -11.14
rhand -23.9275 13.4724
rfingers 7.12502
rthumb 2.54738 -16.4922
lclavicle -4.65653e-014 1.47101e-014
lhumerus -48.0233 -19.2969 100.779
lradius 138.768
lwrist 18.8566
lhand -19.4736 -10.259
lfingers 7.12502
lthumb 6.84798 19.6102
rfemur -57.7816 -9.96448 10.0694
rtibia 35.8384
rfoot 11.4182 -5.10838
rtoes -41.5836
lfemur 13.7454 -8.13189 -34.4297
ltibia 31.313
lfoot 12.0085 -5.67866
ltoes 4.05513
117
root 5.93945 16.5273 18.9491 16.0561 28.4911 0.888603
lowerback 4.37118 -3.81264 -4.31455
upperback -3.78306 -5.23972 3.31222
thorax -5.70406 -2.34384 6.35222
lowerneck -24.3764 1.55583 0.0353155
upperneck 13.5844 2.77858 -3.48407
head 8.23242 0.932111 -0.805643
rclavicle 2.127e-014 1.11319e-014
rhumerus -82.9638 0.139786 -74.0994
rradius 91.8909
rwrist -10.8466
rhand -23.8858 13.5004
rfingers 7.12502
rthumb 2.58769 -16.4637
lclavicle 2.127e-014 1.11319e-014
lhumerus -48.6266 -19.2729 100.752
lradius 137.614
lwrist 18.9343
lhand -19.3012 -10.1743
lfingers 7.12502
lthumb 7.01439 19.6895
rfemur -57.3565 -10.7713 10.951
rtibia 32.9878
rfoot 12.5364 -5.66847
rtoes -42.6879
lfemur 14.033 -9.11368 -34.2829
ltibia 33.6173
lfoot 11.291 -4.5828
ltoes 4.2211
118
root 6.13398 16.5066 19.5004 15.9893 29.1572 1.31142
lowerback 4.45379 -3.9813 -4.59661
upperback -3.70642 -5.49398 3.23448
thorax -5.61815 -2.46568 6.44788
lowerneck -24.5777 1.46317 -0.0521297
upperneck 13.4613 2.66611 -3.41368
head 8.21867 0.881747 -0.782756
rclavicle -2.76808e-014 -1.43125e-014
rhumerus -82.9595 -0.585159 -73.7041
rradius 92.2354
rwrist -10.6045
rhand -23.8081 13.4535
rfingers 7.12502
rthumb 2.66272 -16.5096
lclavicle -2.76808e-014 -1.43125e-014
lhumerus -49.1583 -19.0917 100.716
lradius 136.217
lwrist 18.9832
lhand -19.2331 -10.0441
lfingers 7.12502
lthumb 7.08011 19.8175
rfemur -56.9197 -11.7649 11.9571
rtibia 30.8565
rfoot 13.2952 -6.5293
rtoes -43.6366
lfemur 14.1237 -10.095 -34.1103
ltibia 36.4226
lfoot 10.6299 -3.87574
ltoes 4.25648
119
root 6.32415 16.4758 20.0479 15.8123 29.8778 1.75618
lowerback 4.69905 -4.12925 -4.91798
upperback -3.57591 -5.73096 3.13411
thorax -5.56766 -2.5776 6.55226
lowerneck -24.7429 1.33406 -0.162055
upperneck 13.2878 2.50444 -3.31321
head 8.18026 0.811541 -0.753055
rclavicle 6.35614e-014 1.15295e-014
rhumerus -82.8041 -1.401 -73.3604
rradius 92.4789
rwrist -10.4681
rhand -23.704 13.3639
rfingers 7.12502
rthumb 2.76325 -16.5979
lclavicle 6.35614e-014 1.15295e-014
lhumerus -49.6099 -18.7717 100.672
lradius 134.599
lwrist 19.0156
lhand -19.2647 -9.88613
lfingers 7.12502
lthumb 7.04962 19.9765
rfemur -56.5314 -12.8891 13.059
rtibia 29.5629
rfoot 13.7171 -7.46276
rtoes -44.1307
lfemur 14.04 -11.0436 -33.9265
ltibia 39.6456
lfoot 10.0322 -3.65949
ltoes 4.10449
120
root 6.51059 16.4333 20.5913 15.522 30.6066 2.21252
lowerback 5.10291 -4.24313 -5.26881
upperback -3.40193 -5.93377 3.00872
thorax -5.56478 -2.67072 6.65771
lowerneck -24.8603 1.17351 -0.289725
upperneck 13.0831 2.30056 -3.18725
head 8.12253 0.724277 -0.717845
rclavicle 5.36719e-015 -1.19271e-015
rhumerus -82.5052 -2.27848 -73.0813
rradius 92.6115
rwrist -10.4683
rhand -23.5765 13.2192
rfingers 7.12502
rthumb 2.88635 -16.741
lclavicle 5.36719e-015 -1.19271e-015
lhumerus -49.9932 -18.3157 100.619
lradius 132.785
lwrist 19.0746
lhand -19.3548 -9.72219
lfingers 7.12502
lthumb 6.96267 20.1433
rfemur -56.2422 -14.1236 14.2542
rtibia 29.1768
rfoot 13.8056 -8.04813
rtoes -43.6582
lfemur 13.7977 -11.9283 -33.7472
ltibia 43.2249
lfoot 9.45048 -3.89891
ltoes 3.56402
121
root 6.69413 16.3795 21.1301 15.1156 31.2945 2.64813
lowerback 5.65721 -4.30887 -5.62232
upperback -3.19179 -6.08276 2.86219
thorax -5.61792 -2.73548 6.75258
lowerneck -24.9394 0.990729 -0.42597
upperneck 12.8641 2.06566 -3.04094
head 8.05341 0.624699 -0.678677
rclavicle 5.0044e-014 7.15625e-015
rhumerus -82.0538 -3.18931 -72.8809
rradius 92.6252
rwrist -10.6052
rhand -23.4484 13.0697
rfingers 7.12502
rthumb 3.01008 -16.8888
lclavicle 5.0044e-014 7.15625e-015
lhumerus -50.3061 -17.7291 100.549
lradius 130.799
lwrist 19.1828
lhand -19.4757 -9.55963
lfingers 7.12502
lthumb 6.84595 20.3097
rfemur -56.0694 -15.4096 15.5241
rtibia 29.7064
rfoot 13.6914 -7.83389
rtoes -42.7051
lfemur 13.3886 -12.6992 -33.5612
ltibia 47.1008
lfoot 8.84393 -4.49128
ltoes 2.63584
122
root 6.87549 16.3136 21.6626 14.5901 31.8968 3.02514
lowerback 6.34713 -4.31551 -5.94352
upperback -2.9543 -6.16082 2.70177
thorax -5.73377 -2.76378 6.82288
lowerneck -24.9701 0.794369 -0.559851
upperneck 12.6293 1.81011 -2.88753
head 7.97155 0.516828 -0.640249
rclavicle -5.59579e-014 -3.37934e-014
rhumerus -81.4441 -4.10395 -72.768
rradius 92.5137
rwrist -10.8485
rhand -23.3284 12.936
rfingers 7.12502
rthumb 3.12598 -17.0209
lclavicle -5.59579e-014 -3.37934e-014
lhumerus -50.5278 -17.0011 100.45
lradius 128.641
lwrist 19.344
lhand -19.5547 -9.42141
lfingers 7.12502
lthumb 6.76973 20.4504
rfemur -55.9601 -16.6442 16.8026
rtibia 31.0922
rfoot 13.2199 -6.93003
rtoes -40.805
lfemur 12.8112 -13.3112 -33.3432
ltibia 51.2184
lfoot 8.18416 -5.28618
ltoes 1.52297
